

==========================================
	Pre-Check Configurations
==========================================

File to be converted
--------------------
		Initializing File <strong>1615941134c4516.mp4</strong> and pre checking configurations...

System hardware Information
---------------------------
		Unable log System hardware information, plaese install "lshw" 

Temporary Uploading
-------------------
		File Uploaded to Temp directory successfully and video conversion file is being executed !

Video Conversion File Execution
-------------------------------
		Video Converson File executed successfully with Target File > !1615941134c4516.mp3


==========================================
	Starting Conversion Log
==========================================

Getting Arguments
-----------------
		Filename : 1615941134c4516.mp3
File directory : 2021/03/17
Log file : /var/www/vhosts/centx.app/httpdocs/files/logs/2021/03/17/1615941134c4516.log


Conversion queue
----------------
		Getting the file information from the queue for conversion

Conversion queue
----------------
		File has been moved from Temporary dir to Conversion Queue/var/www/vhosts/centx.app/httpdocs/files/temp/1615941134c4516.xyz Orig_ /var/www/vhosts/centx.app/httpdocs/files/conversion_queue/1615941134c4516.mp3

Parsing FFmpeg Configurations
-----------------------------
		<strong>use_video_rate</strong> : 1
<strong>use_video_bit_rate</strong> : 1
<strong>use_audio_rate</strong> : 1
<strong>use_audio_bit_rate</strong> : 1
<strong>use_audio_codec</strong> : 1
<strong>use_video_codec</strong> : 1
<strong>format</strong> : mp4
<strong>video_codec</strong> : libx264
<strong>audio_codec</strong> : libfdk_aac
<strong>audio_rate</strong> : 22050
<strong>audio_bitrate</strong> : 128000
<strong>video_rate</strong> : 
<strong>video_bitrate</strong> : 
<strong>video_bitrate_hd</strong> : 
<strong>normal_res</strong> : 
<strong>high_res</strong> : 
<strong>max_video_duration</strong> : 320
<strong>resize</strong> : max
<strong>outputPath</strong> : 2021/03/17/
<strong>cb_combo_res</strong> : 
<strong>gen_240</strong> : yes
<strong>gen_360</strong> : yes
<strong>gen_480</strong> : yes
<strong>gen_720</strong> : yes
<strong>gen_1080</strong> : yes


Starting Conversion
-------------------
		Started on 2021-03-17 00:32:19 - 2021 Mar 17

Checking File...
File : /var/www/vhosts/centx.app/httpdocs/files/conversion_queue/1615941134c4516.mp3

File Exists____audio
--------------------
		Yes

Preparing file...
-----------------
		<strong>format</strong> : mp3
<strong>duration</strong> : 271.93
<strong>size</strong> : 6530529
<strong>bitrate</strong> : 192120
<strong>video_width</strong> : 0
<strong>video_height</strong> : 0
<strong>video_wh_ratio</strong> : N/A
<strong>video_codec</strong> : 
<strong>video_rate</strong> : 
<strong>video_bitrate</strong> : 0
<strong>video_color</strong> : N/A
<strong>audio_codec</strong> : mp3
<strong>audio_bitrate</strong> : 192000
<strong>audio_rate</strong> : 44100
<strong>audio_channels</strong> : 2
<strong>path</strong> : /var/www/vhosts/centx.app/httpdocs/files/conversion_queue/1615941134c4516.mp3
<strong>rotation</strong> : 0


Audio Files ____ /var/www/vhosts/centx.app/httpdocs/files/conversion_queue/1615941134c4516.mp3 Resolutions: 
------------------------------------------------------------------------------------------------------------
		/var/www/vhosts/centx.app/httpdocs/files/conversion_queue/1615941134c4516.mp3

==========================================
	Video Conversionaudio
==========================================

==========================================
	Audio Conversion
==========================================

Getting Video Details Array: 
-----------------------------
		<strong>size</strong> : 6530529
<strong>duration</strong> : 271
<strong>bitrate</strong> : 188
<strong>format</strong> : mp3
<strong>audio_codec</strong> : mp3
<strong>audio_rate</strong> : 44100
<strong>audio_channels</strong> : stereo


Getting out : 
--------------
		ffmpeg version 3.4.8 Copyright (c) 2000-2020 the FFmpeg developers
  built with gcc 4.8.5 (GCC) 20150623 (Red Hat 4.8.5-39)
  configuration: --prefix=/usr --bindir=/usr/bin --datadir=/usr/share/ffmpeg --docdir=/usr/share/doc/ffmpeg --incdir=/usr/include/ffmpeg --libdir=/usr/lib64 --mandir=/usr/share/man --arch=x86_64 --optflags='-O2 -g -pipe -Wall -Wp,-D_FORTIFY_SOURCE=2 -fexceptions -fstack-protector-strong --param=ssp-buffer-size=4 -grecord-gcc-switches -m64 -mtune=generic' --extra-ldflags='-Wl,-z,relro ' --extra-cflags=' ' --enable-libopencore-amrnb --enable-libopencore-amrwb --enable-libvo-amrwbenc --enable-version3 --enable-bzlib --disable-crystalhd --enable-fontconfig --enable-gcrypt --enable-gnutls --enable-ladspa --enable-libass --enable-libbluray --enable-libcdio --enable-libdrm --enable-indev=jack --enable-libfreetype --enable-libfribidi --enable-libgsm --enable-libmp3lame --enable-nvenc --enable-openal --enable-opencl --enable-opengl --enable-libopenjpeg --enable-libopus --disable-encoder=libopus --enable-libpulse --enable-librsvg --enable-libsoxr --enable-libspeex --enable-libtheora --enable-libvorbis --enable-libv4l2 --enable-libvidstab --enable-libvpx --enable-libx264 --enable-libx265 --enable-libxvid --enable-libzvbi --enable-avfilter --enable-avresample --enable-libmodplug --enable-postproc --enable-pthreads --disable-static --enable-shared --enable-gpl --disable-debug --disable-stripping --shlibdir=/usr/lib64 --enable-libmfx --enable-runtime-cpudetect
  libavutil      55. 78.100 / 55. 78.100
  libavcodec     57.107.100 / 57.107.100
  libavformat    57. 83.100 / 57. 83.100
  libavdevice    57. 10.100 / 57. 10.100
  libavfilter     6.107.100 /  6.107.100
  libavresample   3.  7.  0 /  3.  7.  0
  libswscale      4.  8.100 /  4.  8.100
  libswresample   2.  9.100 /  2.  9.100
  libpostproc    54.  7.100 / 54.  7.100
[mp3 @ 0x1235e80] Estimating duration from bitrate, this may be inaccurate
Input #0, mp3, from '/var/www/vhosts/centx.app/httpdocs/files/conversion_queue/1615941134c4516.mp3':
  Metadata:
    TSS             : GarageBand 10.3.5
    iTunNORM        :  0000022F 00000285 00000ACC 00000D8F 0001BD4E 0002B234 00007B35 00007A02 0001622F 00037A9C
    iTunSMPB        :  00000000 00000210 000009ED 0000000000B6F103 00000000 0063824A 00000000 00000000 00000000 00000000 00000000 00000000
  Duration: 00:04:31.93, start: 0.000000, bitrate: 192 kb/s
    Stream #0:0: Audio: mp3, 44100 Hz, stereo, s16p, 192 kb/s
Output #0, null, to '/dev/null':
  Metadata:
    TSS             : GarageBand 10.3.5
    iTunNORM        :  0000022F 00000285 00000ACC 00000D8F 0001BD4E 0002B234 00007B35 00007A02 0001622F 00037A9C
    iTunSMPB        :  00000000 00000210 000009ED 0000000000B6F103 00000000 0063824A 00000000 00000000 00000000 00000000 00000000 00000000
    encoder         : Lavf57.83.100
    Stream #0:0: Audio: mp3, 44100 Hz, stereo, s16p, 192 kb/s
Stream mapping:
  Stream #0:0 -> #0:0 (copy)
Press [q] to stop, [?] for help
size=N/A time=00:04:31.90 bitrate=N/A speed=4.47e+03x    
video:0kB audio:6373kB subtitle:0kB other streams:0kB global headers:0kB muxing overhead: unknown


Low SD second Execute Full Command : 
-------------------------------------
		
======Converting Video=========


=======Low Resolution Conversion=======


 Sarting : Generating Low resolution video @ 2021-03-17 00:32:20 

 Converting Video SD File  

 Command : /bin/ffmpeg -i /var/www/vhosts/centx.app/httpdocs/files/conversion_queue/1615941134c4516.mp3 /var/www/vhosts/centx.app/httpdocs/files/videos/2021/03/17//1615941134c4516-audio.mp4 

 ffmpeg output : ffmpeg version 3.4.8 Copyright (c) 2000-2020 the FFmpeg developers
  built with gcc 4.8.5 (GCC) 20150623 (Red Hat 4.8.5-39)
  configuration: --prefix=/usr --bindir=/usr/bin --datadir=/usr/share/ffmpeg --docdir=/usr/share/doc/ffmpeg --incdir=/usr/include/ffmpeg --libdir=/usr/lib64 --mandir=/usr/share/man --arch=x86_64 --optflags='-O2 -g -pipe -Wall -Wp,-D_FORTIFY_SOURCE=2 -fexceptions -fstack-protector-strong --param=ssp-buffer-size=4 -grecord-gcc-switches -m64 -mtune=generic' --extra-ldflags='-Wl,-z,relro ' --extra-cflags=' ' --enable-libopencore-amrnb --enable-libopencore-amrwb --enable-libvo-amrwbenc --enable-version3 --enable-bzlib --disable-crystalhd --enable-fontconfig --enable-gcrypt --enable-gnutls --enable-ladspa --enable-libass --enable-libbluray --enable-libcdio --enable-libdrm --enable-indev=jack --enable-libfreetype --enable-libfribidi --enable-libgsm --enable-libmp3lame --enable-nvenc --enable-openal --enable-opencl --enable-opengl --enable-libopenjpeg --enable-libopus --disable-encoder=libopus --enable-libpulse --enable-librsvg --enable-libsoxr --enable-libspeex --enable-libtheora --enable-libvorbis --enable-libv4l2 --enable-libvidstab --enable-libvpx --enable-libx264 --enable-libx265 --enable-libxvid --enable-libzvbi --enable-avfilter --enable-avresample --enable-libmodplug --enable-postproc --enable-pthreads --disable-static --enable-shared --enable-gpl --disable-debug --disable-stripping --shlibdir=/usr/lib64 --enable-libmfx --enable-runtime-cpudetect
  libavutil      55. 78.100 / 55. 78.100
  libavcodec     57.107.100 / 57.107.100
  libavformat    57. 83.100 / 57. 83.100
  libavdevice    57. 10.100 / 57. 10.100
  libavfilter     6.107.100 /  6.107.100
  libavresample   3.  7.  0 /  3.  7.  0
  libswscale      4.  8.100 /  4.  8.100
  libswresample   2.  9.100 /  2.  9.100
  libpostproc    54.  7.100 / 54.  7.100
[mp3 @ 0x67bde0] Estimating duration from bitrate, this may be inaccurate
Input #0, mp3, from '/var/www/vhosts/centx.app/httpdocs/files/conversion_queue/1615941134c4516.mp3':
  Metadata:
    TSS             : GarageBand 10.3.5
    iTunNORM        :  0000022F 00000285 00000ACC 00000D8F 0001BD4E 0002B234 00007B35 00007A02 0001622F 00037A9C
    iTunSMPB        :  00000000 00000210 000009ED 0000000000B6F103 00000000 0063824A 00000000 00000000 00000000 00000000 00000000 00000000
  Duration: 00:04:31.93, start: 0.000000, bitrate: 192 kb/s
    Stream #0:0: Audio: mp3, 44100 Hz, stereo, s16p, 192 kb/s
Stream mapping:
  Stream #0:0 -> #0:0 (mp3 (native) -> aac (native))
Press [q] to stop, [?] for help
Output #0, mp4, to '/var/www/vhosts/centx.app/httpdocs/files/videos/2021/03/17//1615941134c4516-audio.mp4':
  Metadata:
    TSS             : GarageBand 10.3.5
    iTunNORM        :  0000022F 00000285 00000ACC 00000D8F 0001BD4E 0002B234 00007B35 00007A02 0001622F 00037A9C
    iTunSMPB        :  00000000 00000210 000009ED 0000000000B6F103 00000000 0063824A 00000000 00000000 00000000 00000000 00000000 00000000
    encoder         : Lavf57.83.100
    Stream #0:0: Audio: aac (LC) (mp4a / 0x6134706D), 44100 Hz, stereo, fltp, 128 kb/s
    Metadata:
      encoder         : Lavc57.107.100 aac
size=       0kB time=00:00:08.82 bitrate=   0.0kbits/s speed=17.6x    size=     256kB time=00:00:23.08 bitrate=  90.9kbits/s speed=23.1x    size=     512kB time=00:00:39.26 bitrate= 106.8kbits/s speed=26.2x    size=     768kB time=00:00:55.56 bitrate= 113.2kbits/s speed=27.8x    size=    1024kB time=00:01:08.73 bitrate= 122.1kbits/s speed=27.5x    size=    1280kB time=00:01:23.38 bitrate= 125.8kbits/s speed=27.8x    size=    1536kB time=00:01:39.49 bitrate= 126.5kbits/s speed=28.4x    size=    1792kB time=00:01:57.05 bitrate= 125.4kbits/s speed=29.2x    size=    2048kB time=00:02:14.83 bitrate= 124.4kbits/s speed=29.9x    size=    2304kB time=00:02:28.39 bitrate= 127.2kbits/s speed=29.6x    size=    2560kB time=00:02:43.00 bitrate= 128.7kbits/s speed=29.6x    size=    2816kB time=00:02:57.72 bitrate= 129.8kbits/s speed=29.6x    size=    3072kB time=00:03:14.97 bitrate= 129.1kbits/s speed=  30x    size=    3328kB time=00:03:32.76 bitrate= 128.1kbits/s speed=30.4x    size=    3584kB time=00:03:49.62 bitrate= 127.9kbits/s speed=30.6x    size=    3840kB time=00:04:06.47 bitrate= 127.6kbits/s speed=30.8x    size=    4096kB time=00:04:23.52 bitrate= 127.3kbits/s speed=  31x    size=    4397kB time=00:04:31.95 bitrate= 132.4kbits/s speed=30.9x    
video:0kB audio:4350kB subtitle:0kB other streams:0kB global headers:0kB muxing overhead: 1.071298%
[aac @ 0x68cde0] Qavg: 570.453
 


Conversion Ouput
----------------
		
======Converting Video=========


=======Low Resolution Conversion=======


 Sarting : Generating Low resolution video @ 2021-03-17 00:32:20 

 Converting Video SD File  

 Command : /bin/ffmpeg -i /var/www/vhosts/centx.app/httpdocs/files/conversion_queue/1615941134c4516.mp3 /var/www/vhosts/centx.app/httpdocs/files/videos/2021/03/17//1615941134c4516-audio.mp4 

 ffmpeg output : ffmpeg version 3.4.8 Copyright (c) 2000-2020 the FFmpeg developers
  built with gcc 4.8.5 (GCC) 20150623 (Red Hat 4.8.5-39)
  configuration: --prefix=/usr --bindir=/usr/bin --datadir=/usr/share/ffmpeg --docdir=/usr/share/doc/ffmpeg --incdir=/usr/include/ffmpeg --libdir=/usr/lib64 --mandir=/usr/share/man --arch=x86_64 --optflags='-O2 -g -pipe -Wall -Wp,-D_FORTIFY_SOURCE=2 -fexceptions -fstack-protector-strong --param=ssp-buffer-size=4 -grecord-gcc-switches -m64 -mtune=generic' --extra-ldflags='-Wl,-z,relro ' --extra-cflags=' ' --enable-libopencore-amrnb --enable-libopencore-amrwb --enable-libvo-amrwbenc --enable-version3 --enable-bzlib --disable-crystalhd --enable-fontconfig --enable-gcrypt --enable-gnutls --enable-ladspa --enable-libass --enable-libbluray --enable-libcdio --enable-libdrm --enable-indev=jack --enable-libfreetype --enable-libfribidi --enable-libgsm --enable-libmp3lame --enable-nvenc --enable-openal --enable-opencl --enable-opengl --enable-libopenjpeg --enable-libopus --disable-encoder=libopus --enable-libpulse --enable-librsvg --enable-libsoxr --enable-libspeex --enable-libtheora --enable-libvorbis --enable-libv4l2 --enable-libvidstab --enable-libvpx --enable-libx264 --enable-libx265 --enable-libxvid --enable-libzvbi --enable-avfilter --enable-avresample --enable-libmodplug --enable-postproc --enable-pthreads --disable-static --enable-shared --enable-gpl --disable-debug --disable-stripping --shlibdir=/usr/lib64 --enable-libmfx --enable-runtime-cpudetect
  libavutil      55. 78.100 / 55. 78.100
  libavcodec     57.107.100 / 57.107.100
  libavformat    57. 83.100 / 57. 83.100
  libavdevice    57. 10.100 / 57. 10.100
  libavfilter     6.107.100 /  6.107.100
  libavresample   3.  7.  0 /  3.  7.  0
  libswscale      4.  8.100 /  4.  8.100
  libswresample   2.  9.100 /  2.  9.100
  libpostproc    54.  7.100 / 54.  7.100
[mp3 @ 0x67bde0] Estimating duration from bitrate, this may be inaccurate
Input #0, mp3, from '/var/www/vhosts/centx.app/httpdocs/files/conversion_queue/1615941134c4516.mp3':
  Metadata:
    TSS             : GarageBand 10.3.5
    iTunNORM        :  0000022F 00000285 00000ACC 00000D8F 0001BD4E 0002B234 00007B35 00007A02 0001622F 00037A9C
    iTunSMPB        :  00000000 00000210 000009ED 0000000000B6F103 00000000 0063824A 00000000 00000000 00000000 00000000 00000000 00000000
  Duration: 00:04:31.93, start: 0.000000, bitrate: 192 kb/s
    Stream #0:0: Audio: mp3, 44100 Hz, stereo, s16p, 192 kb/s
Stream mapping:
  Stream #0:0 -> #0:0 (mp3 (native) -> aac (native))
Press [q] to stop, [?] for help
Output #0, mp4, to '/var/www/vhosts/centx.app/httpdocs/files/videos/2021/03/17//1615941134c4516-audio.mp4':
  Metadata:
    TSS             : GarageBand 10.3.5
    iTunNORM        :  0000022F 00000285 00000ACC 00000D8F 0001BD4E 0002B234 00007B35 00007A02 0001622F 00037A9C
    iTunSMPB        :  00000000 00000210 000009ED 0000000000B6F103 00000000 0063824A 00000000 00000000 00000000 00000000 00000000 00000000
    encoder         : Lavf57.83.100
    Stream #0:0: Audio: aac (LC) (mp4a / 0x6134706D), 44100 Hz, stereo, fltp, 128 kb/s
    Metadata:
      encoder         : Lavc57.107.100 aac
size=       0kB time=00:00:08.82 bitrate=   0.0kbits/s speed=17.6x    size=     256kB time=00:00:23.08 bitrate=  90.9kbits/s speed=23.1x    size=     512kB time=00:00:39.26 bitrate= 106.8kbits/s speed=26.2x    size=     768kB time=00:00:55.56 bitrate= 113.2kbits/s speed=27.8x    size=    1024kB time=00:01:08.73 bitrate= 122.1kbits/s speed=27.5x    size=    1280kB time=00:01:23.38 bitrate= 125.8kbits/s speed=27.8x    size=    1536kB time=00:01:39.49 bitrate= 126.5kbits/s speed=28.4x    size=    1792kB time=00:01:57.05 bitrate= 125.4kbits/s speed=29.2x    size=    2048kB time=00:02:14.83 bitrate= 124.4kbits/s speed=29.9x    size=    2304kB time=00:02:28.39 bitrate= 127.2kbits/s speed=29.6x    size=    2560kB time=00:02:43.00 bitrate= 128.7kbits/s speed=29.6x    size=    2816kB time=00:02:57.72 bitrate= 129.8kbits/s speed=29.6x    size=    3072kB time=00:03:14.97 bitrate= 129.1kbits/s speed=  30x    size=    3328kB time=00:03:32.76 bitrate= 128.1kbits/s speed=30.4x    size=    3584kB time=00:03:49.62 bitrate= 127.9kbits/s speed=30.6x    size=    3840kB time=00:04:06.47 bitrate= 127.6kbits/s speed=30.8x    size=    4096kB time=00:04:23.52 bitrate= 127.3kbits/s speed=  31x    size=    4397kB time=00:04:31.95 bitrate= 132.4kbits/s speed=30.9x    
video:0kB audio:4350kB subtitle:0kB other streams:0kB global headers:0kB muxing overhead: 1.071298%
[aac @ 0x68cde0] Qavg: 570.453
 

 Sarting : MP4Box Conversion for SD 

 MP4Box Command : /usr/bin/MP4Box -inter 0.5 /var/www/vhosts/centx.app/httpdocs/files/videos/2021/03/17//1615941134c4516-audio.mp4  -tmp /var/www/vhosts/centx.app/httpdocs/files/temp 

 output : Saving /var/www/vhosts/centx.app/httpdocs/files/videos/2021/03/17//1615941134c4516-audio.mp4: 0.001 secs Interleaving
ISO File Writing: |                    | (01/100)ISO File Writing: |                    | (02/100)ISO File Writing: |                    | (03/100)ISO File Writing: |                    | (04/100)ISO File Writing: |=                   | (05/100)ISO File Writing: |=                   | (06/100)ISO File Writing: |=                   | (07/100)ISO File Writing: |=                   | (08/100)ISO File Writing: |=                   | (09/100)ISO File Writing: |==                  | (10/100)ISO File Writing: |==                  | (11/100)ISO File Writing: |==                  | (12/100)ISO File Writing: |==                  | (13/100)ISO File Writing: |==                  | (14/100)ISO File Writing: |===                 | (15/100)ISO File Writing: |===                 | (16/100)ISO File Writing: |===                 | (17/100)ISO File Writing: |===                 | (18/100)ISO File Writing: |===                 | (19/100)ISO File Writing: |====                | (20/100)ISO File Writing: |====                | (21/100)ISO File Writing: |====                | (22/100)ISO File Writing: |====                | (23/100)ISO File Writing: |====                | (24/100)ISO File Writing: |=====               | (25/100)ISO File Writing: |=====               | (26/100)ISO File Writing: |=====               | (27/100)ISO File Writing: |=====               | (28/100)ISO File Writing: |=====               | (29/100)ISO File Writing: |======              | (30/100)ISO File Writing: |======              | (31/100)ISO File Writing: |======              | (32/100)ISO File Writing: |======              | (33/100)ISO File Writing: |======              | (34/100)ISO File Writing: |=======             | (35/100)ISO File Writing: |=======             | (36/100)ISO File Writing: |=======             | (37/100)ISO File Writing: |=======             | (38/100)ISO File Writing: |=======             | (39/100)ISO File Writing: |========            | (40/100)ISO File Writing: |========            | (41/100)ISO File Writing: |========            | (42/100)ISO File Writing: |========            | (43/100)ISO File Writing: |========            | (44/100)ISO File Writing: |=========           | (45/100)ISO File Writing: |=========           | (46/100)ISO File Writing: |=========           | (47/100)ISO File Writing: |=========           | (48/100)ISO File Writing: |=========           | (49/100)ISO File Writing: |==========          | (50/100)ISO File Writing: |==========          | (51/100)ISO File Writing: |==========          | (52/100)ISO File Writing: |==========          | (53/100)ISO File Writing: |==========          | (54/100)ISO File Writing: |===========         | (55/100)ISO File Writing: |===========         | (56/100)ISO File Writing: |===========         | (57/100)ISO File Writing: |===========         | (58/100)ISO File Writing: |===========         | (59/100)ISO File Writing: |============        | (60/100)ISO File Writing: |============        | (61/100)ISO File Writing: |============        | (62/100)ISO File Writing: |============        | (63/100)ISO File Writing: |============        | (64/100)ISO File Writing: |=============       | (65/100)ISO File Writing: |=============       | (66/100)ISO File Writing: |=============       | (67/100)ISO File Writing: |=============       | (68/100)ISO File Writing: |=============       | (69/100)ISO File Writing: |==============      | (70/100)ISO File Writing: |==============      | (71/100)ISO File Writing: |==============      | (72/100)ISO File Writing: |==============      | (73/100)ISO File Writing: |==============      | (74/100)ISO File Writing: |===============     | (75/100)ISO File Writing: |===============     | (76/100)ISO File Writing: |===============     | (77/100)ISO File Writing: |===============     | (78/100)ISO File Writing: |===============     | (79/100)ISO File Writing: |================    | (80/100)ISO File Writing: |================    | (81/100)ISO File Writing: |================    | (82/100)ISO File Writing: |================    | (83/100)ISO File Writing: |================    | (84/100)ISO File Writing: |=================   | (85/100)ISO File Writing: |=================   | (86/100)ISO File Writing: |=================   | (87/100)ISO File Writing: |=================   | (88/100)ISO File Writing: |=================   | (89/100)ISO File Writing: |==================  | (90/100)ISO File Writing: |==================  | (91/100)ISO File Writing: |==================  | (92/100)ISO File Writing: |==================  | (93/100)ISO File Writing: |==================  | (94/100)ISO File Writing: |=================== | (95/100)ISO File Writing: |=================== | (96/100)ISO File Writing: |=================== | (97/100)ISO File Writing: |=================== | (98/100)ISO File Writing: |=================== | (99/100)ISO File Writing: |====================| (100/100)                                                         

 Conversion Status : Successful @ 2021-03-17 00:32:29 


OutPut Deatils
--------------
		<strong>format</strong> : mov,mp4,m4a,3gp,3g2,mj2
<strong>duration</strong> : 271.93
<strong>size</strong> : 4503505
<strong>bitrate</strong> : 132488
<strong>video_width</strong> : 0
<strong>video_height</strong> : 0
<strong>video_wh_ratio</strong> : N/A
<strong>video_codec</strong> : 
<strong>video_rate</strong> : 
<strong>video_bitrate</strong> : 0
<strong>video_color</strong> : N/A
<strong>audio_codec</strong> : aac
<strong>audio_bitrate</strong> : 131040
<strong>audio_rate</strong> : 44100
<strong>audio_channels</strong> : 2
<strong>path</strong> : /var/www/vhosts/centx.app/httpdocs/files/videos/2021/03/17//1615941134c4516-audio.mp4
<strong>rotation</strong> : 0


Conversion Completed___ Output File/var/www/vhosts/centx.app/httpdocs/files/videos/2021/03/17//1615941134c4516-audio.mp4
------------------------------------------------------------------------------------------------------------------------
		

Time Took : 9.4061 seconds

conversion_status : completed 
